999
"DXF R12 Output" (www.mydxf.blogspot.com)
 0 
SECTION
 2 
HEADER
 9 
$ACADVER
 1 
AC1009
 9 
$EXTMIN
 10 
 0 
 20 
 0 
 9 
$EXTMAX
 10 
 8.5 
 20 
 11 
 0 
ENDSEC
 0 
SECTION
 2 
ENTITIES
0
LINE
8
Layer 1
10
0.793749
20
401.740000
11
-0.793749
21
400.152000
0
LINE
8
Layer 1
10
0.000000
20
402.269000
11
0.000000
21
399.623000
0
LINE
8
Layer 1
10
2.116660
20
399.888000
11
1.058330
21
398.829670
0
LINE
8
Layer 1
10
1.587500
20
400.417000
11
0.529170
21
399.358670
0
LINE
8
Layer 1
10
1.058330
20
400.946000
11
0.000000
21
399.887670
0
LINE
8
Layer 1
10
191.663000
20
380.474000
11
191.503483
21
381.069310
0
LINE
8
Layer 1
10
191.503483
20
381.069310
11
191.067685
21
381.505107
0
LINE
8
Layer 1
10
191.067685
20
381.505107
11
190.472375
21
381.664620
0
LINE
8
Layer 1
10
190.472375
20
381.664620
11
189.877065
21
381.505107
0
LINE
8
Layer 1
10
189.877065
20
381.505107
11
189.441268
21
381.069310
0
LINE
8
Layer 1
10
189.441268
20
381.069310
11
189.281755
21
380.474000
0
LINE
8
Layer 1
10
189.281755
20
380.474000
11
189.441270
21
379.878690
0
LINE
8
Layer 1
10
189.441270
20
379.878690
11
189.877068
21
379.442893
0
LINE
8
Layer 1
10
189.877068
20
379.442893
11
190.472377
21
379.283380
0
LINE
8
Layer 1
10
190.472377
20
379.283380
11
191.067688
21
379.442893
0
LINE
8
Layer 1
10
191.067688
20
379.442893
11
191.503485
21
379.878690
0
LINE
8
Layer 1
10
191.503485
20
379.878690
11
191.662998
21
380.474000
0
LINE
8
Layer 1
10
191.662998
20
380.474000
11
191.663000
21
380.474000
0
LINE
8
Layer 1
10
164.723000
20
380.474000
11
164.563483
21
381.069310
0
LINE
8
Layer 1
10
164.563483
20
381.069310
11
164.127685
21
381.505107
0
LINE
8
Layer 1
10
164.127685
20
381.505107
11
163.532375
21
381.664620
0
LINE
8
Layer 1
10
163.532375
20
381.664620
11
162.937065
21
381.505107
0
LINE
8
Layer 1
10
162.937065
20
381.505107
11
162.501268
21
381.069310
0
LINE
8
Layer 1
10
162.501268
20
381.069310
11
162.341755
21
380.474000
0
LINE
8
Layer 1
10
162.341755
20
380.474000
11
162.501270
21
379.878690
0
LINE
8
Layer 1
10
162.501270
20
379.878690
11
162.937068
21
379.442893
0
LINE
8
Layer 1
10
162.937068
20
379.442893
11
163.532377
21
379.283380
0
LINE
8
Layer 1
10
163.532377
20
379.283380
11
164.127688
21
379.442893
0
LINE
8
Layer 1
10
164.127688
20
379.442893
11
164.563485
21
379.878690
0
LINE
8
Layer 1
10
164.563485
20
379.878690
11
164.722998
21
380.474000
0
LINE
8
Layer 1
10
164.722998
20
380.474000
11
164.723000
21
380.474000
0
LINE
8
Layer 1
10
191.663000
20
20.474600
11
191.503483
21
21.069910
0
LINE
8
Layer 1
10
191.503483
20
21.069910
11
191.067685
21
21.505707
0
LINE
8
Layer 1
10
191.067685
20
21.505707
11
190.472375
21
21.665220
0
LINE
8
Layer 1
10
190.472375
20
21.665220
11
189.877065
21
21.505707
0
LINE
8
Layer 1
10
189.877065
20
21.505707
11
189.441268
21
21.069910
0
LINE
8
Layer 1
10
189.441268
20
21.069910
11
189.281755
21
20.474600
0
LINE
8
Layer 1
10
189.281755
20
20.474600
11
189.441270
21
19.879290
0
LINE
8
Layer 1
10
189.441270
20
19.879290
11
189.877068
21
19.443493
0
LINE
8
Layer 1
10
189.877068
20
19.443493
11
190.472377
21
19.283980
0
LINE
8
Layer 1
10
190.472377
20
19.283980
11
191.067688
21
19.443493
0
LINE
8
Layer 1
10
191.067688
20
19.443493
11
191.503485
21
19.879290
0
LINE
8
Layer 1
10
191.503485
20
19.879290
11
191.662998
21
20.474600
0
LINE
8
Layer 1
10
191.662998
20
20.474600
11
191.663000
21
20.474600
0
LINE
8
Layer 1
10
164.723000
20
20.474600
11
164.563483
21
21.069910
0
LINE
8
Layer 1
10
164.563483
20
21.069910
11
164.127685
21
21.505707
0
LINE
8
Layer 1
10
164.127685
20
21.505707
11
163.532375
21
21.665220
0
LINE
8
Layer 1
10
163.532375
20
21.665220
11
162.937065
21
21.505707
0
LINE
8
Layer 1
10
162.937065
20
21.505707
11
162.501268
21
21.069910
0
LINE
8
Layer 1
10
162.501268
20
21.069910
11
162.341755
21
20.474600
0
LINE
8
Layer 1
10
162.341755
20
20.474600
11
162.501270
21
19.879290
0
LINE
8
Layer 1
10
162.501270
20
19.879290
11
162.937068
21
19.443493
0
LINE
8
Layer 1
10
162.937068
20
19.443493
11
163.532377
21
19.283980
0
LINE
8
Layer 1
10
163.532377
20
19.283980
11
164.127688
21
19.443493
0
LINE
8
Layer 1
10
164.127688
20
19.443493
11
164.563485
21
19.879290
0
LINE
8
Layer 1
10
164.563485
20
19.879290
11
164.722998
21
20.474600
0
LINE
8
Layer 1
10
164.722998
20
20.474600
11
164.723000
21
20.474600
0
LINE
8
Layer 1
10
11.662700
20
380.474000
11
11.503183
21
381.069310
0
LINE
8
Layer 1
10
11.503183
20
381.069310
11
11.067385
21
381.505107
0
LINE
8
Layer 1
10
11.067385
20
381.505107
11
10.472075
21
381.664620
0
LINE
8
Layer 1
10
10.472075
20
381.664620
11
9.876765
21
381.505107
0
LINE
8
Layer 1
10
9.876765
20
381.505107
11
9.440968
21
381.069310
0
LINE
8
Layer 1
10
9.440968
20
381.069310
11
9.281455
21
380.474000
0
LINE
8
Layer 1
10
9.281455
20
380.474000
11
9.440970
21
379.878690
0
LINE
8
Layer 1
10
9.440970
20
379.878690
11
9.876767
21
379.442893
0
LINE
8
Layer 1
10
9.876767
20
379.442893
11
10.472078
21
379.283380
0
LINE
8
Layer 1
10
10.472078
20
379.283380
11
11.067388
21
379.442893
0
LINE
8
Layer 1
10
11.067388
20
379.442893
11
11.503185
21
379.878690
0
LINE
8
Layer 1
10
11.503185
20
379.878690
11
11.662698
21
380.474000
0
LINE
8
Layer 1
10
11.662698
20
380.474000
11
11.662700
21
380.474000
0
LINE
8
Layer 1
10
38.602700
20
380.474000
11
38.443183
21
381.069310
0
LINE
8
Layer 1
10
38.443183
20
381.069310
11
38.007385
21
381.505107
0
LINE
8
Layer 1
10
38.007385
20
381.505107
11
37.412075
21
381.664620
0
LINE
8
Layer 1
10
37.412075
20
381.664620
11
36.816765
21
381.505107
0
LINE
8
Layer 1
10
36.816765
20
381.505107
11
36.380968
21
381.069310
0
LINE
8
Layer 1
10
36.380968
20
381.069310
11
36.221455
21
380.474000
0
LINE
8
Layer 1
10
36.221455
20
380.474000
11
36.380970
21
379.878690
0
LINE
8
Layer 1
10
36.380970
20
379.878690
11
36.816767
21
379.442893
0
LINE
8
Layer 1
10
36.816767
20
379.442893
11
37.412077
21
379.283380
0
LINE
8
Layer 1
10
37.412077
20
379.283380
11
38.007388
21
379.442893
0
LINE
8
Layer 1
10
38.007388
20
379.442893
11
38.443185
21
379.878690
0
LINE
8
Layer 1
10
38.443185
20
379.878690
11
38.602697
21
380.474000
0
LINE
8
Layer 1
10
38.602697
20
380.474000
11
38.602700
21
380.474000
0
LINE
8
Layer 1
10
11.662700
20
20.474600
11
11.503183
21
21.069910
0
LINE
8
Layer 1
10
11.503183
20
21.069910
11
11.067385
21
21.505707
0
LINE
8
Layer 1
10
11.067385
20
21.505707
11
10.472075
21
21.665220
0
LINE
8
Layer 1
10
10.472075
20
21.665220
11
9.876765
21
21.505707
0
LINE
8
Layer 1
10
9.876765
20
21.505707
11
9.440968
21
21.069910
0
LINE
8
Layer 1
10
9.440968
20
21.069910
11
9.281455
21
20.474600
0
LINE
8
Layer 1
10
9.281455
20
20.474600
11
9.440970
21
19.879290
0
LINE
8
Layer 1
10
9.440970
20
19.879290
11
9.876767
21
19.443493
0
LINE
8
Layer 1
10
9.876767
20
19.443493
11
10.472078
21
19.283980
0
LINE
8
Layer 1
10
10.472078
20
19.283980
11
11.067388
21
19.443493
0
LINE
8
Layer 1
10
11.067388
20
19.443493
11
11.503185
21
19.879290
0
LINE
8
Layer 1
10
11.503185
20
19.879290
11
11.662698
21
20.474600
0
LINE
8
Layer 1
10
11.662698
20
20.474600
11
11.662700
21
20.474600
0
LINE
8
Layer 1
10
38.602700
20
20.474600
11
38.443183
21
21.069910
0
LINE
8
Layer 1
10
38.443183
20
21.069910
11
38.007385
21
21.505707
0
LINE
8
Layer 1
10
38.007385
20
21.505707
11
37.412075
21
21.665220
0
LINE
8
Layer 1
10
37.412075
20
21.665220
11
36.816765
21
21.505707
0
LINE
8
Layer 1
10
36.816765
20
21.505707
11
36.380968
21
21.069910
0
LINE
8
Layer 1
10
36.380968
20
21.069910
11
36.221455
21
20.474600
0
LINE
8
Layer 1
10
36.221455
20
20.474600
11
36.380970
21
19.879290
0
LINE
8
Layer 1
10
36.380970
20
19.879290
11
36.816767
21
19.443493
0
LINE
8
Layer 1
10
36.816767
20
19.443493
11
37.412077
21
19.283980
0
LINE
8
Layer 1
10
37.412077
20
19.283980
11
38.007388
21
19.443493
0
LINE
8
Layer 1
10
38.007388
20
19.443493
11
38.443185
21
19.879290
0
LINE
8
Layer 1
10
38.443185
20
19.879290
11
38.602697
21
20.474600
0
LINE
8
Layer 1
10
38.602697
20
20.474600
11
38.602700
21
20.474600
0
LINE
8
Layer 1
10
0.472061
20
0.473355
11
0.472061
21
25.473800
0
LINE
8
Layer 1
10
200.472000
20
0.473355
11
0.472061
21
0.473355
0
LINE
8
Layer 1
10
200.472000
20
25.473800
11
200.472000
21
0.473355
0
LINE
8
Layer 1
10
150.472000
20
25.473800
11
200.472000
21
25.473800
0
LINE
8
Layer 1
10
150.472000
20
113.474000
11
150.472000
21
25.473800
0
LINE
8
Layer 1
10
200.472000
20
113.474000
11
150.472000
21
113.474000
0
LINE
8
Layer 1
10
200.472000
20
287.474000
11
200.472000
21
113.474000
0
LINE
8
Layer 1
10
150.472000
20
287.474000
11
200.472000
21
287.474000
0
LINE
8
Layer 1
10
150.472000
20
375.474000
11
150.472000
21
287.474000
0
LINE
8
Layer 1
10
200.472000
20
375.474000
11
150.472000
21
375.474000
0
LINE
8
Layer 1
10
200.472000
20
400.474000
11
200.472000
21
375.474000
0
LINE
8
Layer 1
10
0.472061
20
400.474000
11
200.472000
21
400.474000
0
LINE
8
Layer 1
10
0.472061
20
375.474000
11
0.472061
21
400.474000
0
LINE
8
Layer 1
10
50.472200
20
375.474000
11
0.472061
21
375.474000
0
LINE
8
Layer 1
10
50.472200
20
287.474000
11
50.472200
21
375.474000
0
LINE
8
Layer 1
10
0.472061
20
287.474000
11
50.472200
21
287.474000
0
LINE
8
Layer 1
10
0.472061
20
113.474000
11
0.472061
21
287.474000
0
LINE
8
Layer 1
10
50.472200
20
113.474000
11
0.472061
21
113.474000
0
LINE
8
Layer 1
10
50.472200
20
25.473800
11
50.472200
21
113.474000
0
LINE
8
Layer 1
10
0.472061
20
25.473800
11
50.472200
21
25.473800
0
LINE
8
Layer 1
10
10.982100
20
126.474000
11
10.747644
21
127.349000
0
LINE
8
Layer 1
10
10.747644
20
127.349000
11
10.107100
21
127.989544
0
LINE
8
Layer 1
10
10.107100
20
127.989544
11
9.232100
21
128.224000
0
LINE
8
Layer 1
10
9.232100
20
128.224000
11
8.357100
21
127.989544
0
LINE
8
Layer 1
10
8.357100
20
127.989544
11
7.716556
21
127.349000
0
LINE
8
Layer 1
10
7.716556
20
127.349000
11
7.482100
21
126.474000
0
LINE
8
Layer 1
10
7.482100
20
126.474000
11
7.716556
21
125.599000
0
LINE
8
Layer 1
10
7.716556
20
125.599000
11
8.357100
21
124.958456
0
LINE
8
Layer 1
10
8.357100
20
124.958456
11
9.232100
21
124.724000
0
LINE
8
Layer 1
10
9.232100
20
124.724000
11
10.107100
21
124.958456
0
LINE
8
Layer 1
10
10.107100
20
124.958456
11
10.747644
21
125.599000
0
LINE
8
Layer 1
10
10.747644
20
125.599000
11
10.982100
21
126.474000
0
LINE
8
Layer 1
10
10.982100
20
126.474000
11
10.982100
21
126.474000
0
LINE
8
Layer 1
10
60.982100
20
126.474000
11
60.747644
21
127.349000
0
LINE
8
Layer 1
10
60.747644
20
127.349000
11
60.107100
21
127.989544
0
LINE
8
Layer 1
10
60.107100
20
127.989544
11
59.232100
21
128.224000
0
LINE
8
Layer 1
10
59.232100
20
128.224000
11
58.357100
21
127.989544
0
LINE
8
Layer 1
10
58.357100
20
127.989544
11
57.716556
21
127.349000
0
LINE
8
Layer 1
10
57.716556
20
127.349000
11
57.482100
21
126.474000
0
LINE
8
Layer 1
10
57.482100
20
126.474000
11
57.716556
21
125.599000
0
LINE
8
Layer 1
10
57.716556
20
125.599000
11
58.357100
21
124.958456
0
LINE
8
Layer 1
10
58.357100
20
124.958456
11
59.232100
21
124.724000
0
LINE
8
Layer 1
10
59.232100
20
124.724000
11
60.107100
21
124.958456
0
LINE
8
Layer 1
10
60.107100
20
124.958456
11
60.747644
21
125.599000
0
LINE
8
Layer 1
10
60.747644
20
125.599000
11
60.982100
21
126.474000
0
LINE
8
Layer 1
10
60.982100
20
126.474000
11
60.982100
21
126.474000
0
LINE
8
Layer 1
10
10.982100
20
274.474000
11
10.747644
21
275.349000
0
LINE
8
Layer 1
10
10.747644
20
275.349000
11
10.107100
21
275.989544
0
LINE
8
Layer 1
10
10.107100
20
275.989544
11
9.232100
21
276.224000
0
LINE
8
Layer 1
10
9.232100
20
276.224000
11
8.357100
21
275.989544
0
LINE
8
Layer 1
10
8.357100
20
275.989544
11
7.716556
21
275.349000
0
LINE
8
Layer 1
10
7.716556
20
275.349000
11
7.482100
21
274.474000
0
LINE
8
Layer 1
10
7.482100
20
274.474000
11
7.716556
21
273.599000
0
LINE
8
Layer 1
10
7.716556
20
273.599000
11
8.357100
21
272.958456
0
LINE
8
Layer 1
10
8.357100
20
272.958456
11
9.232100
21
272.724000
0
LINE
8
Layer 1
10
9.232100
20
272.724000
11
10.107100
21
272.958456
0
LINE
8
Layer 1
10
10.107100
20
272.958456
11
10.747644
21
273.599000
0
LINE
8
Layer 1
10
10.747644
20
273.599000
11
10.982100
21
274.474000
0
LINE
8
Layer 1
10
10.982100
20
274.474000
11
10.982100
21
274.474000
0
LINE
8
Layer 1
10
60.982100
20
274.474000
11
60.747644
21
275.349000
0
LINE
8
Layer 1
10
60.747644
20
275.349000
11
60.107100
21
275.989544
0
LINE
8
Layer 1
10
60.107100
20
275.989544
11
59.232100
21
276.224000
0
LINE
8
Layer 1
10
59.232100
20
276.224000
11
58.357100
21
275.989544
0
LINE
8
Layer 1
10
58.357100
20
275.989544
11
57.716556
21
275.349000
0
LINE
8
Layer 1
10
57.716556
20
275.349000
11
57.482100
21
274.474000
0
LINE
8
Layer 1
10
57.482100
20
274.474000
11
57.716556
21
273.599000
0
LINE
8
Layer 1
10
57.716556
20
273.599000
11
58.357100
21
272.958456
0
LINE
8
Layer 1
10
58.357100
20
272.958456
11
59.232100
21
272.724000
0
LINE
8
Layer 1
10
59.232100
20
272.724000
11
60.107100
21
272.958456
0
LINE
8
Layer 1
10
60.107100
20
272.958456
11
60.747644
21
273.599000
0
LINE
8
Layer 1
10
60.747644
20
273.599000
11
60.982100
21
274.474000
0
LINE
8
Layer 1
10
60.982100
20
274.474000
11
60.982100
21
274.474000
0
LINE
8
Layer 1
10
193.462000
20
126.474000
11
193.227544
21
127.349000
0
LINE
8
Layer 1
10
193.227544
20
127.349000
11
192.587000
21
127.989544
0
LINE
8
Layer 1
10
192.587000
20
127.989544
11
191.712000
21
128.224000
0
LINE
8
Layer 1
10
191.712000
20
128.224000
11
190.837000
21
127.989544
0
LINE
8
Layer 1
10
190.837000
20
127.989544
11
190.196456
21
127.349000
0
LINE
8
Layer 1
10
190.196456
20
127.349000
11
189.962000
21
126.474000
0
LINE
8
Layer 1
10
189.962000
20
126.474000
11
190.196456
21
125.599000
0
LINE
8
Layer 1
10
190.196456
20
125.599000
11
190.837000
21
124.958456
0
LINE
8
Layer 1
10
190.837000
20
124.958456
11
191.712000
21
124.724000
0
LINE
8
Layer 1
10
191.712000
20
124.724000
11
192.587000
21
124.958456
0
LINE
8
Layer 1
10
192.587000
20
124.958456
11
193.227544
21
125.599000
0
LINE
8
Layer 1
10
193.227544
20
125.599000
11
193.462000
21
126.474000
0
LINE
8
Layer 1
10
193.462000
20
126.474000
11
193.462000
21
126.474000
0
LINE
8
Layer 1
10
143.462000
20
126.474000
11
143.227544
21
127.349000
0
LINE
8
Layer 1
10
143.227544
20
127.349000
11
142.587000
21
127.989544
0
LINE
8
Layer 1
10
142.587000
20
127.989544
11
141.712000
21
128.224000
0
LINE
8
Layer 1
10
141.712000
20
128.224000
11
140.837000
21
127.989544
0
LINE
8
Layer 1
10
140.837000
20
127.989544
11
140.196456
21
127.349000
0
LINE
8
Layer 1
10
140.196456
20
127.349000
11
139.962000
21
126.474000
0
LINE
8
Layer 1
10
139.962000
20
126.474000
11
140.196456
21
125.599000
0
LINE
8
Layer 1
10
140.196456
20
125.599000
11
140.837000
21
124.958456
0
LINE
8
Layer 1
10
140.837000
20
124.958456
11
141.712000
21
124.724000
0
LINE
8
Layer 1
10
141.712000
20
124.724000
11
142.587000
21
124.958456
0
LINE
8
Layer 1
10
142.587000
20
124.958456
11
143.227544
21
125.599000
0
LINE
8
Layer 1
10
143.227544
20
125.599000
11
143.462000
21
126.474000
0
LINE
8
Layer 1
10
143.462000
20
126.474000
11
143.462000
21
126.474000
0
LINE
8
Layer 1
10
193.462000
20
274.474000
11
193.227544
21
275.349000
0
LINE
8
Layer 1
10
193.227544
20
275.349000
11
192.587000
21
275.989544
0
LINE
8
Layer 1
10
192.587000
20
275.989544
11
191.712000
21
276.224000
0
LINE
8
Layer 1
10
191.712000
20
276.224000
11
190.837000
21
275.989544
0
LINE
8
Layer 1
10
190.837000
20
275.989544
11
190.196456
21
275.349000
0
LINE
8
Layer 1
10
190.196456
20
275.349000
11
189.962000
21
274.474000
0
LINE
8
Layer 1
10
189.962000
20
274.474000
11
190.196456
21
273.599000
0
LINE
8
Layer 1
10
190.196456
20
273.599000
11
190.837000
21
272.958456
0
LINE
8
Layer 1
10
190.837000
20
272.958456
11
191.712000
21
272.724000
0
LINE
8
Layer 1
10
191.712000
20
272.724000
11
192.587000
21
272.958456
0
LINE
8
Layer 1
10
192.587000
20
272.958456
11
193.227544
21
273.599000
0
LINE
8
Layer 1
10
193.227544
20
273.599000
11
193.462000
21
274.474000
0
LINE
8
Layer 1
10
193.462000
20
274.474000
11
193.462000
21
274.474000
0
LINE
8
Layer 1
10
143.462000
20
274.474000
11
143.227544
21
275.349000
0
LINE
8
Layer 1
10
143.227544
20
275.349000
11
142.587000
21
275.989544
0
LINE
8
Layer 1
10
142.587000
20
275.989544
11
141.712000
21
276.224000
0
LINE
8
Layer 1
10
141.712000
20
276.224000
11
140.837000
21
275.989544
0
LINE
8
Layer 1
10
140.837000
20
275.989544
11
140.196456
21
275.349000
0
LINE
8
Layer 1
10
140.196456
20
275.349000
11
139.962000
21
274.474000
0
LINE
8
Layer 1
10
139.962000
20
274.474000
11
140.196456
21
273.599000
0
LINE
8
Layer 1
10
140.196456
20
273.599000
11
140.837000
21
272.958456
0
LINE
8
Layer 1
10
140.837000
20
272.958456
11
141.712000
21
272.724000
0
LINE
8
Layer 1
10
141.712000
20
272.724000
11
142.587000
21
272.958456
0
LINE
8
Layer 1
10
142.587000
20
272.958456
11
143.227544
21
273.599000
0
LINE
8
Layer 1
10
143.227544
20
273.599000
11
143.462000
21
274.474000
0
LINE
8
Layer 1
10
143.462000
20
274.474000
11
143.462000
21
274.474000
 0 
ENDSEC
 0 
EOF