999
"DXF R12 Output" (www.mydxf.blogspot.com)
 0 
SECTION
 2 
HEADER
 9 
$ACADVER
 1 
AC1009
 9 
$EXTMIN
 10 
 0 
 20 
 0 
 9 
$EXTMAX
 10 
 8.5 
 20 
 11 
 0 
ENDSEC
 0 
SECTION
 2 
ENTITIES
0
LINE
8
Layer 1
10
0.793749
20
401.740000
11
-0.793749
21
400.152000
0
LINE
8
Layer 1
10
0.000000
20
402.269000
11
0.000000
21
399.623000
0
LINE
8
Layer 1
10
2.116660
20
399.888000
11
1.058330
21
398.829670
0
LINE
8
Layer 1
10
1.587500
20
400.417000
11
0.529170
21
399.358670
0
LINE
8
Layer 1
10
1.058330
20
400.946000
11
0.000000
21
399.887670
0
LINE
8
Layer 1
10
130.472000
20
29.106500
11
130.472000
21
25.645800
0
LINE
8
Layer 1
10
130.472000
20
25.645900
11
130.624238
21
24.880530
0
LINE
8
Layer 1
10
130.624238
20
24.880530
11
131.057783
21
24.231680
0
LINE
8
Layer 1
10
131.057783
20
24.231680
11
131.706631
21
23.798132
0
LINE
8
Layer 1
10
131.706631
20
23.798132
11
132.472000
21
23.645890
0
LINE
8
Layer 1
10
132.472000
20
23.645500
11
134.450000
21
23.645500
0
LINE
8
Layer 1
10
136.011000
20
22.896600
11
135.315927
21
23.448872
0
LINE
8
Layer 1
10
135.315927
20
23.448872
11
134.450300
21
23.645899
0
LINE
8
Layer 1
10
142.621000
20
14.647100
11
136.010660
21
22.896800
0
LINE
8
Layer 1
10
142.621000
20
14.647900
11
143.417586
21
13.855640
0
LINE
8
Layer 1
10
143.417586
20
13.855640
11
144.358674
21
13.267210
0
LINE
8
Layer 1
10
144.358674
20
13.267210
11
145.406360
21
12.900807
0
LINE
8
Layer 1
10
145.406360
20
12.900807
11
146.522740
21
12.774630
0
LINE
8
Layer 1
10
191.622000
20
12.773800
11
146.522000
21
12.773800
0
LINE
8
Layer 1
10
194.122000
20
10.274600
11
193.925535
21
11.247710
0
LINE
8
Layer 1
10
193.925535
20
11.247710
11
193.389763
21
12.042360
0
LINE
8
Layer 1
10
193.389763
20
12.042360
11
192.595110
21
12.578129
0
LINE
8
Layer 1
10
192.595110
20
12.578129
11
191.622000
21
12.774590
0
LINE
8
Layer 1
10
194.122000
20
9.323660
11
194.122000
21
10.273500
0
LINE
8
Layer 1
10
191.622000
20
6.824620
11
192.595110
21
7.021081
0
LINE
8
Layer 1
10
192.595110
20
7.021081
11
193.389763
21
7.556850
0
LINE
8
Layer 1
10
193.389763
20
7.556850
11
193.925535
21
8.351500
0
LINE
8
Layer 1
10
193.925535
20
8.351500
11
194.122000
21
9.324610
0
LINE
8
Layer 1
10
191.622000
20
6.823350
11
9.322100
21
6.823350
0
LINE
8
Layer 1
10
6.822120
20
9.324610
11
7.018585
21
8.351500
0
LINE
8
Layer 1
10
7.018585
20
8.351500
11
7.554357
21
7.556850
0
LINE
8
Layer 1
10
7.554357
20
7.556850
11
8.349010
21
7.021081
0
LINE
8
Layer 1
10
8.349010
20
7.021081
11
9.322120
21
6.824620
0
LINE
8
Layer 1
10
6.822050
20
9.323660
11
6.822050
21
10.273500
0
LINE
8
Layer 1
10
9.322110
20
12.774600
11
8.349000
21
12.578139
0
LINE
8
Layer 1
10
8.349000
20
12.578139
11
7.554347
21
12.042370
0
LINE
8
Layer 1
10
7.554347
20
12.042370
11
7.018575
21
11.247720
0
LINE
8
Layer 1
10
7.018575
20
11.247720
11
6.822110
21
10.274610
0
LINE
8
Layer 1
10
9.322100
20
12.773800
11
54.421600
21
12.773800
0
LINE
8
Layer 1
10
54.421500
20
12.774600
11
55.537880
21
12.900777
0
LINE
8
Layer 1
10
55.537880
20
12.900777
11
56.585566
21
13.267180
0
LINE
8
Layer 1
10
56.585566
20
13.267180
11
57.526654
21
13.855610
0
LINE
8
Layer 1
10
57.526654
20
13.855610
11
58.323240
21
14.647870
0
LINE
8
Layer 1
10
58.323100
20
14.647100
11
64.933440
21
22.896800
0
LINE
8
Layer 1
10
66.494100
20
23.645900
11
65.628473
21
23.448873
0
LINE
8
Layer 1
10
65.628473
20
23.448873
11
64.933400
21
22.896601
0
LINE
8
Layer 1
10
66.494300
20
23.645500
11
68.472000
21
23.645500
0
LINE
8
Layer 1
10
68.472000
20
23.645900
11
69.237369
21
23.798142
0
LINE
8
Layer 1
10
69.237369
20
23.798142
11
69.886217
21
24.231690
0
LINE
8
Layer 1
10
69.886217
20
24.231690
11
70.319762
21
24.880540
0
LINE
8
Layer 1
10
70.319762
20
24.880540
11
70.472000
21
25.645910
0
LINE
8
Layer 1
10
70.472000
20
25.645800
11
70.472000
21
29.106500
0
LINE
8
Layer 1
10
70.911300
20
30.356200
11
70.585013
21
29.768300
0
LINE
8
Layer 1
10
70.585013
20
29.768300
11
70.471997
21
29.105490
0
LINE
8
Layer 1
10
70.911500
20
30.355400
11
96.570300
21
62.375200
0
LINE
8
Layer 1
10
104.374000
20
62.375200
11
103.577415
21
63.167462
0
LINE
8
Layer 1
10
103.577415
20
63.167462
11
102.636327
21
63.755895
0
LINE
8
Layer 1
10
102.636327
20
63.755895
11
101.588641
21
64.122300
0
LINE
8
Layer 1
10
101.588641
20
64.122300
11
100.472260
21
64.248478
0
LINE
8
Layer 1
10
100.472260
20
64.248478
11
99.355879
21
64.122300
0
LINE
8
Layer 1
10
99.355879
20
64.122300
11
98.308193
21
63.755895
0
LINE
8
Layer 1
10
98.308193
20
63.755895
11
97.367105
21
63.167462
0
LINE
8
Layer 1
10
97.367105
20
63.167462
11
96.570520
21
62.375200
0
LINE
8
Layer 1
10
130.033000
20
30.355400
11
104.374000
21
62.375200
0
LINE
8
Layer 1
10
130.472000
20
29.105500
11
130.358984
21
29.768310
0
LINE
8
Layer 1
10
130.358984
20
29.768310
11
130.032697
21
30.356210
0
LINE
8
Layer 1
10
140.472000
20
28.185800
11
140.472000
21
31.646500
0
LINE
8
Layer 1
10
140.472000
20
31.645900
11
140.319762
21
32.411270
0
LINE
8
Layer 1
10
140.319762
20
32.411270
11
139.886217
21
33.060120
0
LINE
8
Layer 1
10
139.886217
20
33.060120
11
139.237369
21
33.493668
0
LINE
8
Layer 1
10
139.237369
20
33.493668
11
138.472000
21
33.645910
0
LINE
8
Layer 1
10
138.472000
20
33.646800
11
136.494000
21
33.646800
0
LINE
8
Layer 1
10
134.933000
20
34.395200
11
135.628073
21
33.842928
0
LINE
8
Layer 1
10
135.628073
20
33.842928
11
136.493700
21
33.645901
0
LINE
8
Layer 1
10
109.949000
20
65.574000
11
134.933700
21
34.395500
0
LINE
8
Layer 1
10
110.724000
20
72.601200
11
110.001190
21
71.891789
0
LINE
8
Layer 1
10
110.001190
20
71.891789
11
109.450985
21
71.077526
0
LINE
8
Layer 1
10
109.450985
20
71.077526
11
109.076501
21
70.186672
0
LINE
8
Layer 1
10
109.076501
20
70.186672
11
108.880854
21
69.247492
0
LINE
8
Layer 1
10
108.880854
20
69.247492
11
108.867162
21
68.288248
0
LINE
8
Layer 1
10
108.867162
20
68.288248
11
109.038541
21
67.337202
0
LINE
8
Layer 1
10
109.038541
20
67.337202
11
109.398107
21
66.422619
0
LINE
8
Layer 1
10
109.398107
20
66.422619
11
109.948977
21
65.572760
0
LINE
8
Layer 1
10
142.497000
20
98.062100
11
110.724000
21
72.601300
0
LINE
8
Layer 1
10
144.122000
20
97.282600
11
143.968403
21
97.815128
0
LINE
8
Layer 1
10
143.968403
20
97.815128
11
143.554809
21
98.184070
0
LINE
8
Layer 1
10
143.554809
20
98.184070
11
143.008266
21
98.276095
0
LINE
8
Layer 1
10
143.008266
20
98.276095
11
142.496660
21
98.062935
0
LINE
8
Layer 1
10
144.122000
20
85.645300
11
144.122000
21
97.281600
0
LINE
8
Layer 1
10
142.122000
20
83.645800
11
142.900485
21
83.802968
0
LINE
8
Layer 1
10
142.900485
20
83.802968
11
143.536206
21
84.231579
0
LINE
8
Layer 1
10
143.536206
20
84.231579
11
143.964824
21
84.867296
0
LINE
8
Layer 1
10
143.964824
20
84.867296
11
144.122000
21
85.645780
0
LINE
8
Layer 1
10
142.122000
20
83.645000
11
132.472000
21
83.645000
0
LINE
8
Layer 1
10
132.472000
20
83.645800
11
131.706631
21
83.493558
0
LINE
8
Layer 1
10
131.706631
20
83.493558
11
131.057783
21
83.060010
0
LINE
8
Layer 1
10
131.057783
20
83.060010
11
130.624238
21
82.411160
0
LINE
8
Layer 1
10
130.624238
20
82.411160
11
130.472000
21
81.645790
0
LINE
8
Layer 1
10
130.472000
20
81.644800
11
130.472000
21
75.646700
0
LINE
8
Layer 1
10
130.472000
20
75.645800
11
130.624238
21
74.880430
0
LINE
8
Layer 1
10
130.624238
20
74.880430
11
131.057783
21
74.231580
0
LINE
8
Layer 1
10
131.057783
20
74.231580
11
131.706631
21
73.798032
0
LINE
8
Layer 1
10
131.706631
20
73.798032
11
132.472000
21
73.645790
0
LINE
8
Layer 1
10
132.472000
20
73.646400
11
142.122000
21
73.646400
0
LINE
8
Layer 1
10
144.122000
20
71.645800
11
143.964824
21
72.424284
0
LINE
8
Layer 1
10
143.964824
20
72.424284
11
143.536206
21
73.060001
0
LINE
8
Layer 1
10
143.536206
20
73.060001
11
142.900485
21
73.488612
0
LINE
8
Layer 1
10
142.900485
20
73.488612
11
142.122000
21
73.645780
0
LINE
8
Layer 1
10
144.122000
20
25.775400
11
144.122000
21
71.646200
0
LINE
8
Layer 1
10
142.342000
20
25.150600
11
142.847224
21
24.814533
0
LINE
8
Layer 1
10
142.847224
20
24.814533
11
143.453749
21
24.832450
0
LINE
8
Layer 1
10
143.453749
20
24.832450
11
143.938255
21
25.197754
0
LINE
8
Layer 1
10
143.938255
20
25.197754
11
144.122350
21
25.775942
0
LINE
8
Layer 1
10
140.911000
20
26.934300
11
142.341600
21
25.151010
0
LINE
8
Layer 1
10
140.472000
20
28.186200
11
140.585021
21
27.523406
0
LINE
8
Layer 1
10
140.585021
20
27.523406
11
140.911303
21
26.935520
0
LINE
8
Layer 1
10
70.472000
20
75.646700
11
70.472000
21
81.644800
0
LINE
8
Layer 1
10
70.472000
20
81.645800
11
70.319762
21
82.411170
0
LINE
8
Layer 1
10
70.319762
20
82.411170
11
69.886217
21
83.060020
0
LINE
8
Layer 1
10
69.886217
20
83.060020
11
69.237369
21
83.493568
0
LINE
8
Layer 1
10
69.237369
20
83.493568
11
68.472000
21
83.645810
0
LINE
8
Layer 1
10
68.472000
20
83.645000
11
58.822100
21
83.645000
0
LINE
8
Layer 1
10
56.822100
20
85.645800
11
56.979276
21
84.867316
0
LINE
8
Layer 1
10
56.979276
20
84.867316
11
57.407894
21
84.231599
0
LINE
8
Layer 1
10
57.407894
20
84.231599
11
58.043615
21
83.802988
0
LINE
8
Layer 1
10
58.043615
20
83.802988
11
58.822100
21
83.645820
0
LINE
8
Layer 1
10
56.822200
20
85.645300
11
56.822200
21
97.281600
0
LINE
8
Layer 1
10
58.447400
20
98.062900
11
57.935794
21
98.276060
0
LINE
8
Layer 1
10
57.935794
20
98.276060
11
57.389251
21
98.184035
0
LINE
8
Layer 1
10
57.389251
20
98.184035
11
56.975657
21
97.815093
0
LINE
8
Layer 1
10
56.975657
20
97.815093
11
56.822060
21
97.282565
0
LINE
8
Layer 1
10
58.447500
20
98.062100
11
90.220300
21
72.601300
0
LINE
8
Layer 1
10
90.995300
20
65.572800
11
91.546170
21
66.422659
0
LINE
8
Layer 1
10
91.546170
20
66.422659
11
91.905736
21
67.337242
0
LINE
8
Layer 1
10
91.905736
20
67.337242
11
92.077115
21
68.288288
0
LINE
8
Layer 1
10
92.077115
20
68.288288
11
92.063423
21
69.247532
0
LINE
8
Layer 1
10
92.063423
20
69.247532
11
91.867776
21
70.186712
0
LINE
8
Layer 1
10
91.867776
20
70.186712
11
91.493292
21
71.077566
0
LINE
8
Layer 1
10
91.493292
20
71.077566
11
90.943087
21
71.891829
0
LINE
8
Layer 1
10
90.943087
20
71.891829
11
90.220277
21
72.601240
0
LINE
8
Layer 1
10
90.995300
20
65.574000
11
66.010600
21
34.395500
0
LINE
8
Layer 1
10
64.450000
20
33.645900
11
65.315627
21
33.842927
0
LINE
8
Layer 1
10
65.315627
20
33.842927
11
66.010700
21
34.395199
0
LINE
8
Layer 1
10
64.450100
20
33.646800
11
62.472100
21
33.646800
0
LINE
8
Layer 1
10
62.472000
20
33.645900
11
61.706631
21
33.493658
0
LINE
8
Layer 1
10
61.706631
20
33.493658
11
61.057783
21
33.060110
0
LINE
8
Layer 1
10
61.057783
20
33.060110
11
60.624238
21
32.411260
0
LINE
8
Layer 1
10
60.624238
20
32.411260
11
60.472000
21
31.645890
0
LINE
8
Layer 1
10
60.472100
20
31.646500
11
60.472100
21
28.185800
0
LINE
8
Layer 1
10
60.032700
20
26.935500
11
60.358982
21
27.523386
0
LINE
8
Layer 1
10
60.358982
20
27.523386
11
60.472003
21
28.186180
0
LINE
8
Layer 1
10
60.032900
20
26.934300
11
58.602300
21
25.151010
0
LINE
8
Layer 1
10
56.822100
20
25.776000
11
57.006195
21
25.197812
0
LINE
8
Layer 1
10
57.006195
20
25.197812
11
57.490701
21
24.832508
0
LINE
8
Layer 1
10
57.490701
20
24.832508
11
58.097226
21
24.814591
0
LINE
8
Layer 1
10
58.097226
20
24.814591
11
58.602450
21
25.150658
0
LINE
8
Layer 1
10
56.822200
20
25.775400
11
56.822200
21
71.646200
0
LINE
8
Layer 1
10
58.822100
20
73.645800
11
58.043615
21
73.488632
0
LINE
8
Layer 1
10
58.043615
20
73.488632
11
57.407894
21
73.060021
0
LINE
8
Layer 1
10
57.407894
20
73.060021
11
56.979276
21
72.424304
0
LINE
8
Layer 1
10
56.979276
20
72.424304
11
56.822100
21
71.645820
0
LINE
8
Layer 1
10
58.822100
20
73.646400
11
68.472000
21
73.646400
0
LINE
8
Layer 1
10
68.472000
20
73.645800
11
69.237369
21
73.798042
0
LINE
8
Layer 1
10
69.237369
20
73.798042
11
69.886217
21
74.231590
0
LINE
8
Layer 1
10
69.886217
20
74.231590
11
70.319762
21
74.880440
0
LINE
8
Layer 1
10
70.319762
20
74.880440
11
70.472000
21
75.645810
0
LINE
8
Layer 1
10
152.597000
20
133.873000
11
152.597000
21
131.175000
0
LINE
8
Layer 1
10
152.597000
20
133.874000
11
152.495416
21
134.881671
0
LINE
8
Layer 1
10
152.495416
20
134.881671
11
152.204073
21
135.820219
0
LINE
8
Layer 1
10
152.204073
20
135.820219
11
151.743077
21
136.669537
0
LINE
8
Layer 1
10
151.743077
20
136.669537
11
151.132533
21
137.409520
0
LINE
8
Layer 1
10
151.132533
20
137.409520
11
150.392549
21
138.020062
0
LINE
8
Layer 1
10
150.392549
20
138.020062
11
149.543229
21
138.481057
0
LINE
8
Layer 1
10
149.543229
20
138.481057
11
148.604681
21
138.772398
0
LINE
8
Layer 1
10
148.604681
20
138.772398
11
147.597010
21
138.873980
0
LINE
8
Layer 1
10
138.531000
20
138.874000
11
147.597000
21
138.874000
0
LINE
8
Layer 1
10
134.042000
20
141.674000
11
134.829490
21
140.513847
0
LINE
8
Layer 1
10
134.829490
20
140.513847
11
135.886219
21
139.631938
0
LINE
8
Layer 1
10
135.886219
20
139.631938
11
137.143234
21
139.071265
0
LINE
8
Layer 1
10
137.143234
20
139.071265
11
138.531580
21
138.874820
0
LINE
8
Layer 1
10
107.375000
20
196.072000
11
134.041700
21
141.673700
0
LINE
8
Layer 1
10
107.375000
20
204.876000
11
106.609383
21
202.719575
0
LINE
8
Layer 1
10
106.609383
20
202.719575
11
106.354178
21
200.474370
0
LINE
8
Layer 1
10
106.354178
20
200.474370
11
106.609383
21
198.229165
0
LINE
8
Layer 1
10
106.609383
20
198.229165
11
107.375000
21
196.072740
0
LINE
8
Layer 1
10
107.375000
20
204.877000
11
134.042000
21
259.275000
0
LINE
8
Layer 1
10
138.532000
20
262.074000
11
137.143654
21
261.877555
0
LINE
8
Layer 1
10
137.143654
20
261.877555
11
135.886639
21
261.316882
0
LINE
8
Layer 1
10
135.886639
20
261.316882
11
134.829910
21
260.434973
0
LINE
8
Layer 1
10
134.829910
20
260.434973
11
134.042420
21
259.274820
0
LINE
8
Layer 1
10
138.531000
20
262.074000
11
147.597000
21
262.074000
0
LINE
8
Layer 1
10
147.597000
20
262.074000
11
148.577005
21
262.170961
0
LINE
8
Layer 1
10
148.577005
20
262.170961
11
149.510413
21
262.454602
0
LINE
8
Layer 1
10
149.510413
20
262.454602
11
150.370997
21
262.914057
0
LINE
8
Layer 1
10
150.370997
20
262.914057
11
151.132527
21
263.538463
0
LINE
8
Layer 1
10
151.132527
20
263.538463
11
151.756933
21
264.299993
0
LINE
8
Layer 1
10
151.756933
20
264.299993
11
152.216388
21
265.160577
0
LINE
8
Layer 1
10
152.216388
20
265.160577
11
152.500029
21
266.093985
0
LINE
8
Layer 1
10
152.500029
20
266.093985
11
152.596990
21
267.073990
0
LINE
8
Layer 1
10
152.597000
20
267.074000
11
152.597000
21
269.774000
0
LINE
8
Layer 1
10
157.597000
20
274.774000
11
156.616995
21
274.677039
0
LINE
8
Layer 1
10
156.616995
20
274.677039
11
155.683587
21
274.393398
0
LINE
8
Layer 1
10
155.683587
20
274.393398
11
154.823003
21
273.933943
0
LINE
8
Layer 1
10
154.823003
20
273.933943
11
154.061473
21
273.309537
0
LINE
8
Layer 1
10
154.061473
20
273.309537
11
153.437067
21
272.548007
0
LINE
8
Layer 1
10
153.437067
20
272.548007
11
152.977612
21
271.687423
0
LINE
8
Layer 1
10
152.977612
20
271.687423
11
152.693971
21
270.754015
0
LINE
8
Layer 1
10
152.693971
20
270.754015
11
152.597010
21
269.774010
0
LINE
8
Layer 1
10
157.597000
20
274.774000
11
177.597000
21
274.774000
0
LINE
8
Layer 1
10
182.597000
20
269.774000
11
182.500040
21
270.754007
0
LINE
8
Layer 1
10
182.500040
20
270.754007
11
182.216400
21
271.687419
0
LINE
8
Layer 1
10
182.216400
20
271.687419
11
181.756944
21
272.548005
0
LINE
8
Layer 1
10
181.756944
20
272.548005
11
181.132537
21
273.309537
0
LINE
8
Layer 1
10
181.132537
20
273.309537
11
180.371005
21
273.933944
0
LINE
8
Layer 1
10
180.371005
20
273.933944
11
179.510419
21
274.393400
0
LINE
8
Layer 1
10
179.510419
20
274.393400
11
178.577007
21
274.677040
0
LINE
8
Layer 1
10
178.577007
20
274.677040
11
177.597000
21
274.774000
0
LINE
8
Layer 1
10
182.597000
20
269.774000
11
182.597000
21
267.074000
0
LINE
8
Layer 1
10
182.597000
20
267.074000
11
182.693961
21
266.093995
0
LINE
8
Layer 1
10
182.693961
20
266.093995
11
182.977602
21
265.160587
0
LINE
8
Layer 1
10
182.977602
20
265.160587
11
183.437057
21
264.300003
0
LINE
8
Layer 1
10
183.437057
20
264.300003
11
184.061463
21
263.538473
0
LINE
8
Layer 1
10
184.061463
20
263.538473
11
184.822993
21
262.914067
0
LINE
8
Layer 1
10
184.822993
20
262.914067
11
185.683577
21
262.454612
0
LINE
8
Layer 1
10
185.683577
20
262.454612
11
186.616985
21
262.170971
0
LINE
8
Layer 1
10
186.616985
20
262.170971
11
187.596990
21
262.074010
0
LINE
8
Layer 1
10
187.597000
20
262.074000
11
189.122000
21
262.074000
0
LINE
8
Layer 1
10
194.122000
20
257.074000
11
194.025040
21
258.054007
0
LINE
8
Layer 1
10
194.025040
20
258.054007
11
193.741400
21
258.987419
0
LINE
8
Layer 1
10
193.741400
20
258.987419
11
193.281944
21
259.848005
0
LINE
8
Layer 1
10
193.281944
20
259.848005
11
192.657537
21
260.609537
0
LINE
8
Layer 1
10
192.657537
20
260.609537
11
191.896005
21
261.233944
0
LINE
8
Layer 1
10
191.896005
20
261.233944
11
191.035419
21
261.693400
0
LINE
8
Layer 1
10
191.035419
20
261.693400
11
190.102007
21
261.977040
0
LINE
8
Layer 1
10
190.102007
20
261.977040
11
189.122000
21
262.074000
0
LINE
8
Layer 1
10
194.122000
20
143.875000
11
194.122000
21
257.074000
0
LINE
8
Layer 1
10
189.122000
20
138.874000
11
190.102007
21
138.970962
0
LINE
8
Layer 1
10
190.102007
20
138.970962
11
191.035418
21
139.254603
0
LINE
8
Layer 1
10
191.035418
20
139.254603
11
191.896003
21
139.714061
0
LINE
8
Layer 1
10
191.896003
20
139.714061
11
192.657534
21
140.338470
0
LINE
8
Layer 1
10
192.657534
20
140.338470
11
193.281940
21
141.100003
0
LINE
8
Layer 1
10
193.281940
20
141.100003
11
193.741394
21
141.960591
0
LINE
8
Layer 1
10
193.741394
20
141.960591
11
194.025032
21
142.894002
0
LINE
8
Layer 1
10
194.025032
20
142.894002
11
194.121990
21
143.874010
0
LINE
8
Layer 1
10
187.597000
20
138.874000
11
189.122000
21
138.874000
0
LINE
8
Layer 1
10
187.597000
20
138.874000
11
186.589329
21
138.772418
0
LINE
8
Layer 1
10
186.589329
20
138.772418
11
185.650781
21
138.481077
0
LINE
8
Layer 1
10
185.650781
20
138.481077
11
184.801461
21
138.020082
0
LINE
8
Layer 1
10
184.801461
20
138.020082
11
184.061477
21
137.409540
0
LINE
8
Layer 1
10
184.061477
20
137.409540
11
183.450933
21
136.669557
0
LINE
8
Layer 1
10
183.450933
20
136.669557
11
182.989937
21
135.820239
0
LINE
8
Layer 1
10
182.989937
20
135.820239
11
182.698594
21
134.881691
0
LINE
8
Layer 1
10
182.698594
20
134.881691
11
182.597010
21
133.874020
0
LINE
8
Layer 1
10
182.597000
20
131.175000
11
182.597000
21
133.873000
0
LINE
8
Layer 1
10
177.597000
20
126.174000
11
178.577007
21
126.270962
0
LINE
8
Layer 1
10
178.577007
20
126.270962
11
179.510418
21
126.554603
0
LINE
8
Layer 1
10
179.510418
20
126.554603
11
180.371003
21
127.014061
0
LINE
8
Layer 1
10
180.371003
20
127.014061
11
181.132534
21
127.638470
0
LINE
8
Layer 1
10
181.132534
20
127.638470
11
181.756940
21
128.400003
0
LINE
8
Layer 1
10
181.756940
20
128.400003
11
182.216394
21
129.260591
0
LINE
8
Layer 1
10
182.216394
20
129.260591
11
182.500032
21
130.194002
0
LINE
8
Layer 1
10
182.500032
20
130.194002
11
182.596990
21
131.174010
0
LINE
8
Layer 1
10
157.597000
20
126.174000
11
177.597000
21
126.174000
0
LINE
8
Layer 1
10
152.597000
20
131.174000
11
152.693958
21
130.193992
0
LINE
8
Layer 1
10
152.693958
20
130.193992
11
152.977596
21
129.260581
0
LINE
8
Layer 1
10
152.977596
20
129.260581
11
153.437050
21
128.399993
0
LINE
8
Layer 1
10
153.437050
20
128.399993
11
154.061456
21
127.638460
0
LINE
8
Layer 1
10
154.061456
20
127.638460
11
154.822987
21
127.014051
0
LINE
8
Layer 1
10
154.822987
20
127.014051
11
155.683572
21
126.554593
0
LINE
8
Layer 1
10
155.683572
20
126.554593
11
156.616983
21
126.270952
0
LINE
8
Layer 1
10
156.616983
20
126.270952
11
157.596990
21
126.173990
0
LINE
8
Layer 1
10
144.122000
20
370.902000
11
144.122000
21
306.790000
0
LINE
8
Layer 1
10
140.059000
20
304.840000
11
140.666965
21
304.480537
0
LINE
8
Layer 1
10
140.666965
20
304.480537
11
141.338026
21
304.307095
0
LINE
8
Layer 1
10
141.338026
20
304.307095
11
142.030922
21
304.324396
0
LINE
8
Layer 1
10
142.030922
20
304.324396
11
142.704394
21
304.537164
0
LINE
8
Layer 1
10
142.704394
20
304.537164
11
143.291579
21
304.929654
0
LINE
8
Layer 1
10
143.291579
20
304.929654
11
143.738380
21
305.459535
0
LINE
8
Layer 1
10
143.738380
20
305.459535
11
144.022678
21
306.091657
0
LINE
8
Layer 1
10
144.022678
20
306.091657
11
144.122360
21
306.790870
0
LINE
8
Layer 1
10
140.059000
20
304.840000
11
110.724000
21
328.348000
0
LINE
8
Layer 1
10
109.949000
20
335.376000
11
109.411822
21
334.550620
0
LINE
8
Layer 1
10
109.411822
20
334.550620
11
109.049457
21
333.644861
0
LINE
8
Layer 1
10
109.049457
20
333.644861
11
108.869831
21
332.685986
0
LINE
8
Layer 1
10
108.869831
20
332.685986
11
108.880867
21
331.701257
0
LINE
8
Layer 1
10
108.880867
20
331.701257
11
109.084658
21
330.737783
0
LINE
8
Layer 1
10
109.084658
20
330.737783
11
109.468897
21
329.841085
0
LINE
8
Layer 1
10
109.468897
20
329.841085
11
110.019910
21
329.036044
0
LINE
8
Layer 1
10
110.019910
20
329.036044
11
110.724023
21
328.347540
0
LINE
8
Layer 1
10
109.949000
20
335.376000
11
139.671000
21
372.466000
0
LINE
8
Layer 1
10
144.122000
20
370.902000
11
144.001644
21
371.668841
0
LINE
8
Layer 1
10
144.001644
20
371.668841
11
143.661759
21
372.347466
0
LINE
8
Layer 1
10
143.661759
20
372.347466
11
143.134120
21
372.893038
0
LINE
8
Layer 1
10
143.134120
20
372.893038
11
142.450498
21
373.260723
0
LINE
8
Layer 1
10
142.450498
20
373.260723
11
141.687106
21
373.401299
0
LINE
8
Layer 1
10
141.687106
20
373.401299
11
140.934192
21
373.305519
0
LINE
8
Layer 1
10
140.934192
20
373.305519
11
140.244589
21
372.988499
0
LINE
8
Layer 1
10
140.244589
20
372.988499
11
139.671130
21
372.465360
0
LINE
8
Layer 1
10
194.122000
20
391.624000
11
194.122000
21
390.674000
0
LINE
8
Layer 1
10
191.622000
20
388.174000
11
192.578709
21
388.364301
0
LINE
8
Layer 1
10
192.578709
20
388.364301
11
193.389767
21
388.906233
0
LINE
8
Layer 1
10
193.389767
20
388.906233
11
193.931699
21
389.717291
0
LINE
8
Layer 1
10
193.931699
20
389.717291
11
194.122000
21
390.674000
0
LINE
8
Layer 1
10
191.622000
20
388.174000
11
146.522000
21
388.174000
0
LINE
8
Layer 1
10
146.523000
20
388.174000
11
145.406619
21
388.047821
0
LINE
8
Layer 1
10
145.406619
20
388.047821
11
144.358933
21
387.681416
0
LINE
8
Layer 1
10
144.358933
20
387.681416
11
143.417845
21
387.092983
0
LINE
8
Layer 1
10
143.417845
20
387.092983
11
142.621260
21
386.300720
0
LINE
8
Layer 1
10
142.621000
20
386.301000
11
104.374000
21
338.573000
0
LINE
8
Layer 1
10
96.570300
20
338.574000
11
97.366885
21
337.781738
0
LINE
8
Layer 1
10
97.366885
20
337.781738
11
98.307973
21
337.193305
0
LINE
8
Layer 1
10
98.307973
20
337.193305
11
99.355659
21
336.826900
0
LINE
8
Layer 1
10
99.355659
20
336.826900
11
100.472040
21
336.700722
0
LINE
8
Layer 1
10
100.472040
20
336.700722
11
101.588421
21
336.826900
0
LINE
8
Layer 1
10
101.588421
20
336.826900
11
102.636107
21
337.193305
0
LINE
8
Layer 1
10
102.636107
20
337.193305
11
103.577195
21
337.781738
0
LINE
8
Layer 1
10
103.577195
20
337.781738
11
104.373780
21
338.574000
0
LINE
8
Layer 1
10
58.323100
20
386.301000
11
96.570200
21
338.573000
0
LINE
8
Layer 1
10
58.323200
20
386.301000
11
57.526615
21
387.093263
0
LINE
8
Layer 1
10
57.526615
20
387.093263
11
56.585527
21
387.681696
0
LINE
8
Layer 1
10
56.585527
20
387.681696
11
55.537841
21
388.048101
0
LINE
8
Layer 1
10
55.537841
20
388.048101
11
54.421460
21
388.174280
0
LINE
8
Layer 1
10
9.322100
20
388.174000
11
54.421600
21
388.174000
0
LINE
8
Layer 1
10
6.822120
20
390.674000
11
7.012421
21
389.717291
0
LINE
8
Layer 1
10
7.012421
20
389.717291
11
7.554353
21
388.906233
0
LINE
8
Layer 1
10
7.554353
20
388.906233
11
8.365411
21
388.364301
0
LINE
8
Layer 1
10
8.365411
20
388.364301
11
9.322120
21
388.174000
0
LINE
8
Layer 1
10
6.822050
20
391.624000
11
6.822050
21
390.674000
0
LINE
8
Layer 1
10
9.322110
20
394.124000
11
8.365401
21
393.933699
0
LINE
8
Layer 1
10
8.365401
20
393.933699
11
7.554343
21
393.391767
0
LINE
8
Layer 1
10
7.554343
20
393.391767
11
7.012411
21
392.580709
0
LINE
8
Layer 1
10
7.012411
20
392.580709
11
6.822110
21
391.624000
0
LINE
8
Layer 1
10
191.622000
20
394.124000
11
9.322100
21
394.124000
0
LINE
8
Layer 1
10
194.122000
20
391.624000
11
193.931699
21
392.580709
0
LINE
8
Layer 1
10
193.931699
20
392.580709
11
193.389767
21
393.391767
0
LINE
8
Layer 1
10
193.389767
20
393.391767
11
192.578709
21
393.933699
0
LINE
8
Layer 1
10
192.578709
20
393.933699
11
191.622000
21
394.124000
0
LINE
8
Layer 1
10
90.995300
20
335.376000
11
61.273000
21
372.466000
0
LINE
8
Layer 1
10
90.220300
20
328.347000
11
90.924413
21
329.035504
0
LINE
8
Layer 1
10
90.924413
20
329.035504
11
91.475426
21
329.840545
0
LINE
8
Layer 1
10
91.475426
20
329.840545
11
91.859665
21
330.737243
0
LINE
8
Layer 1
10
91.859665
20
330.737243
11
92.063456
21
331.700717
0
LINE
8
Layer 1
10
92.063456
20
331.700717
11
92.074492
21
332.685446
0
LINE
8
Layer 1
10
92.074492
20
332.685446
11
91.894866
21
333.644321
0
LINE
8
Layer 1
10
91.894866
20
333.644321
11
91.532501
21
334.550080
0
LINE
8
Layer 1
10
91.532501
20
334.550080
11
90.995323
21
335.375460
0
LINE
8
Layer 1
10
60.885400
20
304.840000
11
90.220300
21
328.348000
0
LINE
8
Layer 1
10
56.822100
20
306.790000
11
56.921782
21
306.090787
0
LINE
8
Layer 1
10
56.921782
20
306.090787
11
57.206080
21
305.458665
0
LINE
8
Layer 1
10
57.206080
20
305.458665
11
57.652881
21
304.928784
0
LINE
8
Layer 1
10
57.652881
20
304.928784
11
58.240066
21
304.536294
0
LINE
8
Layer 1
10
58.240066
20
304.536294
11
58.913538
21
304.323526
0
LINE
8
Layer 1
10
58.913538
20
304.323526
11
59.606434
21
304.306225
0
LINE
8
Layer 1
10
59.606434
20
304.306225
11
60.277495
21
304.479667
0
LINE
8
Layer 1
10
60.277495
20
304.479667
11
60.885460
21
304.839130
0
LINE
8
Layer 1
10
56.822200
20
370.902000
11
56.822200
21
306.790000
0
LINE
8
Layer 1
10
61.272900
20
372.466000
11
60.699441
21
372.989139
0
LINE
8
Layer 1
10
60.699441
20
372.989139
11
60.009838
21
373.306159
0
LINE
8
Layer 1
10
60.009838
20
373.306159
11
59.256924
21
373.401939
0
LINE
8
Layer 1
10
59.256924
20
373.401939
11
58.493532
21
373.261363
0
LINE
8
Layer 1
10
58.493532
20
373.261363
11
57.809910
21
372.893678
0
LINE
8
Layer 1
10
57.809910
20
372.893678
11
57.282271
21
372.348106
0
LINE
8
Layer 1
10
57.282271
20
372.348106
11
56.942386
21
371.669481
0
LINE
8
Layer 1
10
56.942386
20
371.669481
11
56.822030
21
370.902640
0
LINE
8
Layer 1
10
0.472061
20
0.473355
11
0.472061
21
25.473800
0
LINE
8
Layer 1
10
200.472000
20
0.473355
11
0.472061
21
0.473355
0
LINE
8
Layer 1
10
200.472000
20
25.473800
11
200.472000
21
0.473355
0
LINE
8
Layer 1
10
155.472000
20
25.473800
11
200.472000
21
25.473800
0
LINE
8
Layer 1
10
150.472000
20
30.474600
11
150.573584
21
29.466929
0
LINE
8
Layer 1
10
150.573584
20
29.466929
11
150.864927
21
28.528381
0
LINE
8
Layer 1
10
150.864927
20
28.528381
11
151.325923
21
27.679063
0
LINE
8
Layer 1
10
151.325923
20
27.679063
11
151.936467
21
26.939080
0
LINE
8
Layer 1
10
151.936467
20
26.939080
11
152.676451
21
26.328538
0
LINE
8
Layer 1
10
152.676451
20
26.328538
11
153.525771
21
25.867543
0
LINE
8
Layer 1
10
153.525771
20
25.867543
11
154.464319
21
25.576202
0
LINE
8
Layer 1
10
154.464319
20
25.576202
11
155.471990
21
25.474620
0
LINE
8
Layer 1
10
150.472000
20
108.473000
11
150.472000
21
30.474400
0
LINE
8
Layer 1
10
155.472000
20
113.474000
11
154.464329
21
113.372418
0
LINE
8
Layer 1
10
154.464329
20
113.372418
11
153.525781
21
113.081077
0
LINE
8
Layer 1
10
153.525781
20
113.081077
11
152.676461
21
112.620082
0
LINE
8
Layer 1
10
152.676461
20
112.620082
11
151.936477
21
112.009540
0
LINE
8
Layer 1
10
151.936477
20
112.009540
11
151.325933
21
111.269557
0
LINE
8
Layer 1
10
151.325933
20
111.269557
11
150.864937
21
110.420239
0
LINE
8
Layer 1
10
150.864937
20
110.420239
11
150.573594
21
109.481691
0
LINE
8
Layer 1
10
150.573594
20
109.481691
11
150.472010
21
108.474020
0
LINE
8
Layer 1
10
200.472000
20
113.474000
11
155.472000
21
113.474000
0
LINE
8
Layer 1
10
200.472000
20
287.474000
11
200.472000
21
113.474000
0
LINE
8
Layer 1
10
155.472000
20
287.474000
11
200.472000
21
287.474000
0
LINE
8
Layer 1
10
150.472000
20
292.474000
11
150.573582
21
291.466328
0
LINE
8
Layer 1
10
150.573582
20
291.466328
11
150.864924
21
290.527778
0
LINE
8
Layer 1
10
150.864924
20
290.527778
11
151.325920
21
289.678458
0
LINE
8
Layer 1
10
151.325920
20
289.678458
11
151.936463
21
288.938473
0
LINE
8
Layer 1
10
151.936463
20
288.938473
11
152.676448
21
288.327930
0
LINE
8
Layer 1
10
152.676448
20
288.327930
11
153.525768
21
287.866934
0
LINE
8
Layer 1
10
153.525768
20
287.866934
11
154.464318
21
287.575592
0
LINE
8
Layer 1
10
154.464318
20
287.575592
11
155.471990
21
287.474010
0
LINE
8
Layer 1
10
150.472000
20
370.474000
11
150.472000
21
292.474000
0
LINE
8
Layer 1
10
155.472000
20
375.474000
11
154.491993
21
375.377040
0
LINE
8
Layer 1
10
154.491993
20
375.377040
11
153.558581
21
375.093400
0
LINE
8
Layer 1
10
153.558581
20
375.093400
11
152.697995
21
374.633944
0
LINE
8
Layer 1
10
152.697995
20
374.633944
11
151.936463
21
374.009537
0
LINE
8
Layer 1
10
151.936463
20
374.009537
11
151.312056
21
373.248005
0
LINE
8
Layer 1
10
151.312056
20
373.248005
11
150.852600
21
372.387419
0
LINE
8
Layer 1
10
150.852600
20
372.387419
11
150.568960
21
371.454007
0
LINE
8
Layer 1
10
150.568960
20
371.454007
11
150.472000
21
370.474000
0
LINE
8
Layer 1
10
200.472000
20
375.474000
11
155.472000
21
375.474000
0
LINE
8
Layer 1
10
200.472000
20
400.474000
11
200.472000
21
375.474000
0
LINE
8
Layer 1
10
0.472061
20
400.474000
11
200.472000
21
400.474000
0
LINE
8
Layer 1
10
0.472061
20
375.474000
11
0.472061
21
400.474000
0
LINE
8
Layer 1
10
45.472100
20
375.474000
11
0.472061
21
375.474000
0
LINE
8
Layer 1
10
50.472100
20
370.474000
11
50.375139
21
371.454005
0
LINE
8
Layer 1
10
50.375139
20
371.454005
11
50.091498
21
372.387413
0
LINE
8
Layer 1
10
50.091498
20
372.387413
11
49.632043
21
373.247997
0
LINE
8
Layer 1
10
49.632043
20
373.247997
11
49.007637
21
374.009527
0
LINE
8
Layer 1
10
49.007637
20
374.009527
11
48.246107
21
374.633933
0
LINE
8
Layer 1
10
48.246107
20
374.633933
11
47.385523
21
375.093388
0
LINE
8
Layer 1
10
47.385523
20
375.093388
11
46.452115
21
375.377029
0
LINE
8
Layer 1
10
46.452115
20
375.377029
11
45.472110
21
375.473990
0
LINE
8
Layer 1
10
50.472200
20
292.474000
11
50.472200
21
370.474000
0
LINE
8
Layer 1
10
45.472100
20
287.474000
11
46.452105
21
287.570961
0
LINE
8
Layer 1
10
46.452105
20
287.570961
11
47.385513
21
287.854602
0
LINE
8
Layer 1
10
47.385513
20
287.854602
11
48.246097
21
288.314057
0
LINE
8
Layer 1
10
48.246097
20
288.314057
11
49.007627
21
288.938463
0
LINE
8
Layer 1
10
49.007627
20
288.938463
11
49.632033
21
289.699993
0
LINE
8
Layer 1
10
49.632033
20
289.699993
11
50.091488
21
290.560577
0
LINE
8
Layer 1
10
50.091488
20
290.560577
11
50.375129
21
291.493985
0
LINE
8
Layer 1
10
50.375129
20
291.493985
11
50.472090
21
292.473990
0
LINE
8
Layer 1
10
0.472061
20
287.474000
11
45.472100
21
287.474000
0
LINE
8
Layer 1
10
0.472061
20
113.474000
11
0.472061
21
287.474000
0
LINE
8
Layer 1
10
45.472100
20
113.474000
11
0.472061
21
113.474000
0
LINE
8
Layer 1
10
50.472100
20
108.474000
11
50.370516
21
109.481671
0
LINE
8
Layer 1
10
50.370516
20
109.481671
11
50.079173
21
110.420219
0
LINE
8
Layer 1
10
50.079173
20
110.420219
11
49.618177
21
111.269537
0
LINE
8
Layer 1
10
49.618177
20
111.269537
11
49.007633
21
112.009520
0
LINE
8
Layer 1
10
49.007633
20
112.009520
11
48.267649
21
112.620062
0
LINE
8
Layer 1
10
48.267649
20
112.620062
11
47.418329
21
113.081057
0
LINE
8
Layer 1
10
47.418329
20
113.081057
11
46.479781
21
113.372398
0
LINE
8
Layer 1
10
46.479781
20
113.372398
11
45.472110
21
113.473980
0
LINE
8
Layer 1
10
50.472200
20
30.474400
11
50.472200
21
108.473000
0
LINE
8
Layer 1
10
45.472100
20
25.474600
11
46.479771
21
25.576182
0
LINE
8
Layer 1
10
46.479771
20
25.576182
11
47.418319
21
25.867523
0
LINE
8
Layer 1
10
47.418319
20
25.867523
11
48.267639
21
26.328518
0
LINE
8
Layer 1
10
48.267639
20
26.328518
11
49.007623
21
26.939060
0
LINE
8
Layer 1
10
49.007623
20
26.939060
11
49.618167
21
27.679043
0
LINE
8
Layer 1
10
49.618167
20
27.679043
11
50.079163
21
28.528361
0
LINE
8
Layer 1
10
50.079163
20
28.528361
11
50.370506
21
29.466909
0
LINE
8
Layer 1
10
50.370506
20
29.466909
11
50.472090
21
30.474580
0
LINE
8
Layer 1
10
0.472061
20
25.473800
11
45.472100
21
25.473800
0
LINE
8
Layer 1
10
97.345300
20
326.738000
11
59.948200
21
296.770000
0
LINE
8
Layer 1
10
103.599000
20
326.738000
11
102.107972
21
327.561690
0
LINE
8
Layer 1
10
102.107972
20
327.561690
11
100.472285
21
327.836253
0
LINE
8
Layer 1
10
100.472285
20
327.836253
11
98.836598
21
327.561690
0
LINE
8
Layer 1
10
98.836598
20
327.561690
11
97.345570
21
326.738000
0
LINE
8
Layer 1
10
103.599000
20
326.738000
11
140.996000
21
296.770000
0
LINE
8
Layer 1
10
142.359000
20
290.667000
11
142.837876
21
292.301691
0
LINE
8
Layer 1
10
142.837876
20
292.301691
11
142.749316
21
293.957872
0
LINE
8
Layer 1
10
142.749316
20
293.957872
11
142.124847
21
295.494366
0
LINE
8
Layer 1
10
142.124847
20
295.494366
11
140.996000
21
296.770000
0
LINE
8
Layer 1
10
142.359000
20
290.667000
11
104.962000
21
214.378000
0
LINE
8
Layer 1
10
95.982400
20
214.379000
11
96.769890
21
213.218848
0
LINE
8
Layer 1
10
96.769890
20
213.218848
11
97.826620
21
212.336939
0
LINE
8
Layer 1
10
97.826620
20
212.336939
11
99.083634
21
211.776266
0
LINE
8
Layer 1
10
99.083634
20
211.776266
11
100.471980
21
211.579822
0
LINE
8
Layer 1
10
100.471980
20
211.579822
11
101.860326
21
211.776266
0
LINE
8
Layer 1
10
101.860326
20
211.776266
11
103.117340
21
212.336939
0
LINE
8
Layer 1
10
103.117340
20
212.336939
11
104.174070
21
213.218848
0
LINE
8
Layer 1
10
104.174070
20
213.218848
11
104.961560
21
214.379000
0
LINE
8
Layer 1
10
58.585300
20
290.667000
11
95.982400
21
214.378000
0
LINE
8
Layer 1
10
59.948300
20
296.770000
11
58.819617
21
295.494423
0
LINE
8
Layer 1
10
58.819617
20
295.494423
11
58.195232
21
293.958044
0
LINE
8
Layer 1
10
58.195232
20
293.958044
11
58.106667
21
292.302004
0
LINE
8
Layer 1
10
58.106667
20
292.302004
11
58.585440
21
290.667440
0
LINE
8
Layer 1
10
48.347000
20
267.074000
11
48.347000
21
269.774000
0
LINE
8
Layer 1
10
48.347100
20
267.074000
11
48.444061
21
266.093995
0
LINE
8
Layer 1
10
48.444061
20
266.093995
11
48.727702
21
265.160587
0
LINE
8
Layer 1
10
48.727702
20
265.160587
11
49.187157
21
264.300003
0
LINE
8
Layer 1
10
49.187157
20
264.300003
11
49.811563
21
263.538473
0
LINE
8
Layer 1
10
49.811563
20
263.538473
11
50.573093
21
262.914067
0
LINE
8
Layer 1
10
50.573093
20
262.914067
11
51.433677
21
262.454612
0
LINE
8
Layer 1
10
51.433677
20
262.454612
11
52.367085
21
262.170971
0
LINE
8
Layer 1
10
52.367085
20
262.170971
11
53.347090
21
262.074010
0
LINE
8
Layer 1
10
62.412500
20
262.074000
11
53.347100
21
262.074000
0
LINE
8
Layer 1
10
66.902000
20
259.275000
11
66.114510
21
260.435153
0
LINE
8
Layer 1
10
66.114510
20
260.435153
11
65.057781
21
261.317062
0
LINE
8
Layer 1
10
65.057781
20
261.317062
11
63.800766
21
261.877735
0
LINE
8
Layer 1
10
63.800766
20
261.877735
11
62.412420
21
262.074180
0
LINE
8
Layer 1
10
93.568700
20
204.877000
11
66.902000
21
259.275000
0
LINE
8
Layer 1
10
93.568700
20
196.073000
11
94.334317
21
198.229425
0
LINE
8
Layer 1
10
94.334317
20
198.229425
11
94.589522
21
200.474630
0
LINE
8
Layer 1
10
94.589522
20
200.474630
11
94.334317
21
202.719835
0
LINE
8
Layer 1
10
94.334317
20
202.719835
11
93.568700
21
204.876260
0
LINE
8
Layer 1
10
93.568700
20
196.072000
11
66.902000
21
141.673700
0
LINE
8
Layer 1
10
62.412400
20
138.874000
11
63.800746
21
139.070445
0
LINE
8
Layer 1
10
63.800746
20
139.070445
11
65.057761
21
139.631118
0
LINE
8
Layer 1
10
65.057761
20
139.631118
11
66.114490
21
140.513027
0
LINE
8
Layer 1
10
66.114490
20
140.513027
11
66.901980
21
141.673180
0
LINE
8
Layer 1
10
62.412500
20
138.874000
11
53.347100
21
138.874000
0
LINE
8
Layer 1
10
53.347100
20
138.874000
11
52.339429
21
138.772418
0
LINE
8
Layer 1
10
52.339429
20
138.772418
11
51.400881
21
138.481077
0
LINE
8
Layer 1
10
51.400881
20
138.481077
11
50.551561
21
138.020082
0
LINE
8
Layer 1
10
50.551561
20
138.020082
11
49.811577
21
137.409540
0
LINE
8
Layer 1
10
49.811577
20
137.409540
11
49.201033
21
136.669557
0
LINE
8
Layer 1
10
49.201033
20
136.669557
11
48.740037
21
135.820239
0
LINE
8
Layer 1
10
48.740037
20
135.820239
11
48.448694
21
134.881691
0
LINE
8
Layer 1
10
48.448694
20
134.881691
11
48.347110
21
133.874020
0
LINE
8
Layer 1
10
48.347000
20
133.873000
11
48.347000
21
131.175000
0
LINE
8
Layer 1
10
43.347100
20
126.174000
11
44.327107
21
126.270962
0
LINE
8
Layer 1
10
44.327107
20
126.270962
11
45.260518
21
126.554603
0
LINE
8
Layer 1
10
45.260518
20
126.554603
11
46.121103
21
127.014061
0
LINE
8
Layer 1
10
46.121103
20
127.014061
11
46.882634
21
127.638470
0
LINE
8
Layer 1
10
46.882634
20
127.638470
11
47.507040
21
128.400003
0
LINE
8
Layer 1
10
47.507040
20
128.400003
11
47.966494
21
129.260591
0
LINE
8
Layer 1
10
47.966494
20
129.260591
11
48.250132
21
130.194002
0
LINE
8
Layer 1
10
48.250132
20
130.194002
11
48.347090
21
131.174010
0
LINE
8
Layer 1
10
43.346900
20
126.174000
11
23.347100
21
126.174000
0
LINE
8
Layer 1
10
18.347100
20
131.174000
11
18.444058
21
130.193992
0
LINE
8
Layer 1
10
18.444058
20
130.193992
11
18.727696
21
129.260581
0
LINE
8
Layer 1
10
18.727696
20
129.260581
11
19.187150
21
128.399993
0
LINE
8
Layer 1
10
19.187150
20
128.399993
11
19.811556
21
127.638460
0
LINE
8
Layer 1
10
19.811556
20
127.638460
11
20.573087
21
127.014051
0
LINE
8
Layer 1
10
20.573087
20
127.014051
11
21.433672
21
126.554593
0
LINE
8
Layer 1
10
21.433672
20
126.554593
11
22.367083
21
126.270952
0
LINE
8
Layer 1
10
22.367083
20
126.270952
11
23.347090
21
126.173990
0
LINE
8
Layer 1
10
18.347000
20
131.175000
11
18.347000
21
133.873000
0
LINE
8
Layer 1
10
18.347100
20
133.874000
11
18.245516
21
134.881671
0
LINE
8
Layer 1
10
18.245516
20
134.881671
11
17.954173
21
135.820219
0
LINE
8
Layer 1
10
17.954173
20
135.820219
11
17.493177
21
136.669537
0
LINE
8
Layer 1
10
17.493177
20
136.669537
11
16.882633
21
137.409520
0
LINE
8
Layer 1
10
16.882633
20
137.409520
11
16.142649
21
138.020062
0
LINE
8
Layer 1
10
16.142649
20
138.020062
11
15.293329
21
138.481057
0
LINE
8
Layer 1
10
15.293329
20
138.481057
11
14.354781
21
138.772398
0
LINE
8
Layer 1
10
14.354781
20
138.772398
11
13.347110
21
138.873980
0
LINE
8
Layer 1
10
13.347200
20
138.874000
11
11.822100
21
138.874000
0
LINE
8
Layer 1
10
6.822120
20
143.874000
11
6.919078
21
142.893992
0
LINE
8
Layer 1
10
6.919078
20
142.893992
11
7.202716
21
141.960581
0
LINE
8
Layer 1
10
7.202716
20
141.960581
11
7.662170
21
141.099993
0
LINE
8
Layer 1
10
7.662170
20
141.099993
11
8.286576
21
140.338460
0
LINE
8
Layer 1
10
8.286576
20
140.338460
11
9.048107
21
139.714051
0
LINE
8
Layer 1
10
9.048107
20
139.714051
11
9.908692
21
139.254593
0
LINE
8
Layer 1
10
9.908692
20
139.254593
11
10.842103
21
138.970952
0
LINE
8
Layer 1
10
10.842103
20
138.970952
11
11.822110
21
138.873990
0
LINE
8
Layer 1
10
6.822050
20
143.875000
11
6.822050
21
257.074000
0
LINE
8
Layer 1
10
11.822100
20
262.074000
11
10.842095
21
261.977039
0
LINE
8
Layer 1
10
10.842095
20
261.977039
11
9.908687
21
261.693398
0
LINE
8
Layer 1
10
9.908687
20
261.693398
11
9.048103
21
261.233943
0
LINE
8
Layer 1
10
9.048103
20
261.233943
11
8.286573
21
260.609537
0
LINE
8
Layer 1
10
8.286573
20
260.609537
11
7.662167
21
259.848007
0
LINE
8
Layer 1
10
7.662167
20
259.848007
11
7.202712
21
258.987423
0
LINE
8
Layer 1
10
7.202712
20
258.987423
11
6.919071
21
258.054015
0
LINE
8
Layer 1
10
6.919071
20
258.054015
11
6.822110
21
257.074010
0
LINE
8
Layer 1
10
13.347200
20
262.074000
11
11.822100
21
262.074000
0
LINE
8
Layer 1
10
13.347100
20
262.074000
11
14.327105
21
262.170961
0
LINE
8
Layer 1
10
14.327105
20
262.170961
11
15.260513
21
262.454602
0
LINE
8
Layer 1
10
15.260513
20
262.454602
11
16.121097
21
262.914057
0
LINE
8
Layer 1
10
16.121097
20
262.914057
11
16.882627
21
263.538463
0
LINE
8
Layer 1
10
16.882627
20
263.538463
11
17.507033
21
264.299993
0
LINE
8
Layer 1
10
17.507033
20
264.299993
11
17.966488
21
265.160577
0
LINE
8
Layer 1
10
17.966488
20
265.160577
11
18.250129
21
266.093985
0
LINE
8
Layer 1
10
18.250129
20
266.093985
11
18.347090
21
267.073990
0
LINE
8
Layer 1
10
18.347000
20
269.774000
11
18.347000
21
267.074000
0
LINE
8
Layer 1
10
23.347100
20
274.774000
11
22.367095
21
274.677039
0
LINE
8
Layer 1
10
22.367095
20
274.677039
11
21.433687
21
274.393398
0
LINE
8
Layer 1
10
21.433687
20
274.393398
11
20.573103
21
273.933943
0
LINE
8
Layer 1
10
20.573103
20
273.933943
11
19.811573
21
273.309537
0
LINE
8
Layer 1
10
19.811573
20
273.309537
11
19.187167
21
272.548007
0
LINE
8
Layer 1
10
19.187167
20
272.548007
11
18.727712
21
271.687423
0
LINE
8
Layer 1
10
18.727712
20
271.687423
11
18.444071
21
270.754015
0
LINE
8
Layer 1
10
18.444071
20
270.754015
11
18.347110
21
269.774010
0
LINE
8
Layer 1
10
43.346900
20
274.774000
11
23.347100
21
274.774000
0
LINE
8
Layer 1
10
48.347100
20
269.774000
11
48.250139
21
270.754005
0
LINE
8
Layer 1
10
48.250139
20
270.754005
11
47.966498
21
271.687413
0
LINE
8
Layer 1
10
47.966498
20
271.687413
11
47.507043
21
272.547997
0
LINE
8
Layer 1
10
47.507043
20
272.547997
11
46.882637
21
273.309527
0
LINE
8
Layer 1
10
46.882637
20
273.309527
11
46.121107
21
273.933933
0
LINE
8
Layer 1
10
46.121107
20
273.933933
11
45.260523
21
274.393388
0
LINE
8
Layer 1
10
45.260523
20
274.393388
11
44.327115
21
274.677029
0
LINE
8
Layer 1
10
44.327115
20
274.677029
11
43.347110
21
274.773990
0
LINE
8
Layer 1
10
142.359000
20
110.281000
11
104.962000
21
186.570000
0
LINE
8
Layer 1
10
140.996000
20
104.179000
11
142.124680
21
105.454576
0
LINE
8
Layer 1
10
142.124680
20
105.454576
11
142.749064
21
106.990951
0
LINE
8
Layer 1
10
142.749064
20
106.990951
11
142.837630
21
108.646988
0
LINE
8
Layer 1
10
142.837630
20
108.646988
11
142.358860
21
110.281550
0
LINE
8
Layer 1
10
103.599000
20
74.210000
11
140.996000
21
104.179000
0
LINE
8
Layer 1
10
97.345300
20
74.210600
11
98.836328
21
73.386910
0
LINE
8
Layer 1
10
98.836328
20
73.386910
11
100.472015
21
73.112347
0
LINE
8
Layer 1
10
100.472015
20
73.112347
11
102.107702
21
73.386910
0
LINE
8
Layer 1
10
102.107702
20
73.386910
11
103.598730
21
74.210600
0
LINE
8
Layer 1
10
97.345300
20
74.210000
11
59.948200
21
104.179000
0
LINE
8
Layer 1
10
58.585500
20
110.282000
11
58.106730
21
108.647438
0
LINE
8
Layer 1
10
58.106730
20
108.647438
11
58.195296
21
106.991401
0
LINE
8
Layer 1
10
58.195296
20
106.991401
11
58.819680
21
105.455026
0
LINE
8
Layer 1
10
58.819680
20
105.455026
11
59.948360
21
104.179450
0
LINE
8
Layer 1
10
58.585300
20
110.281000
11
95.982400
21
186.570000
0
LINE
8
Layer 1
10
104.962000
20
186.570000
11
104.174510
21
187.730152
0
LINE
8
Layer 1
10
104.174510
20
187.730152
11
103.117780
21
188.612061
0
LINE
8
Layer 1
10
103.117780
20
188.612061
11
101.860766
21
189.172734
0
LINE
8
Layer 1
10
101.860766
20
189.172734
11
100.472420
21
189.369178
0
LINE
8
Layer 1
10
100.472420
20
189.369178
11
99.084074
21
189.172734
0
LINE
8
Layer 1
10
99.084074
20
189.172734
11
97.827060
21
188.612061
0
LINE
8
Layer 1
10
97.827060
20
188.612061
11
96.770330
21
187.730152
0
LINE
8
Layer 1
10
96.770330
20
187.730152
11
95.982840
21
186.570000
 0 
ENDSEC
 0 
EOF